<svg version="1.1" id="Capa_1" xmlns="http://www.w3.org/2000/svg" xmlns:xlink="http://www.w3.org/1999/xlink" x="0px" y="0px" viewBox="0 0 496.009 496.009" style="enable-background:new 0 0 496.009 496.009;" xml:space="preserve">
<g>
	<g>
		<g>
			<path d="M312.007,160.009c0-35.288-28.712-64-64-64c-35.288,0-64,28.712-64,64c0,35.288,28.712,64,64,64
				C283.295,224.009,312.007,195.297,312.007,160.009z M248.007,208.009c-26.472,0-48-21.528-48-48s21.528-48,48-48s48,21.528,48,48
				S274.479,208.009,248.007,208.009z" id="id_149"></path>
			<path d="M248.007,128.009c-17.648,0-32,14.352-32,32s14.352,32,32,32s32-14.352,32-32S265.655,128.009,248.007,128.009z
				 M248.007,176.009c-8.824,0-16-7.176-16-16c0-8.824,7.176-16,16-16c8.824,0,16,7.176,16,16
				C264.007,168.833,256.831,176.009,248.007,176.009z" id="id_150"></path>
			<rect x="240.007" y="64.009" width="16" height="16" id="id_151"></rect>
			<rect x="177.769" y="89.796" transform="matrix(0.7071 0.7071 -0.7071 0.7071 123.5623 -102.7149)" width="16" height="16" id="id_152"></rect>
			<rect x="152.007" y="152.009" width="16" height="16" id="id_153"></rect>
			<rect x="177.766" y="214.241" transform="matrix(-0.7071 0.7071 -0.7071 -0.7071 474.2706 248.032)" width="16" height="16" id="id_154"></rect>
			<rect x="240.007" y="240.009" width="16" height="16" id="id_155"></rect>
			<rect x="302.231" y="214.232" transform="matrix(0.7071 0.7071 -0.7071 0.7071 248.0063 -154.2759)" width="16" height="16" id="id_156"></rect>
			<rect x="328.007" y="152.009" width="16" height="16" id="id_157"></rect>
			<rect x="302.234" y="89.787" transform="matrix(0.7071 -0.7071 0.7071 0.7071 21.7194 248.0093)" width="16" height="16" id="id_158"></rect>
			<rect x="256.007" y="304.009" width="16" height="16" id="id_159"></rect>
			<rect x="224.007" y="304.009" width="16" height="16" id="id_160"></rect>
			<path d="M368.999,48.185C333.543,14.617,287.071-2.399,238.143,0.273c-91.744,5.024-164.704,81-166.12,172.992
				c-0.744,48.76,18.08,94.376,53.008,128.448c27.712,27.032,42.976,61.832,42.976,97.984v32.312h160v-31.456
				c0-36.544,15.392-71.776,43.344-99.208c33.96-33.328,52.656-77.832,52.656-125.336
				C424.007,127.177,404.471,81.777,368.999,48.185z M312.007,400.553v15.456h-128v-16h128.032
				C312.039,400.193,312.007,400.369,312.007,400.553z M360.143,289.921c-26.824,26.328-43.168,59.256-47.136,94.088h-41v-48h-16v48
				h-16v-48h-16v48h-40.88c-3.792-34.76-20.096-67.584-46.912-93.752c-31.752-30.976-48.856-72.44-48.184-116.752
				c1.28-83.624,67.6-152.688,150.984-157.248c44.488-2.448,86.752,13.04,118.984,43.552c32.248,30.536,50.008,71.8,50.008,116.2
				C408.007,219.177,391.007,259.633,360.143,289.921z" id="id_161"></path>
			<path d="M248.007,480.009c-22.056,0-40-14.352-40-32h-16c0,26.472,25.12,48,56,48s56-21.528,56-48h-16
				C288.007,465.657,270.063,480.009,248.007,480.009z" id="id_162"></path>
			<polygon points="336.151,116.961 331.087,132.137 360.007,141.777 360.007,178.241 322.343,190.801 340.095,226.313 
				314.311,252.097 278.799,234.345 266.239,272.009 229.775,272.009 217.215,234.345 181.703,252.097 151.839,222.233 
				140.527,233.545 178.543,271.569 207.871,256.905 218.239,288.009 277.775,288.009 288.143,256.905 317.471,271.569 
				359.567,229.473 344.903,200.145 376.007,189.777 376.007,130.241 			" id="id_163"></polygon>
			<polygon points="164.927,187.881 136.007,178.241 136.007,141.777 173.671,129.217 155.919,93.705 181.703,67.921 
				217.215,85.673 229.775,48.009 266.239,48.009 278.799,85.673 314.311,67.921 344.175,97.785 355.487,86.473 317.471,48.449 
				288.143,63.113 277.775,32.009 218.239,32.009 207.871,63.113 178.543,48.449 136.447,90.545 151.111,119.873 120.007,130.241 
				120.007,189.777 159.863,203.057 			" id="id_164"></polygon>
		</g>
	</g>
</g>
<g>
</g>
<g>
</g>
<g>
</g>
<g>
</g>
<g>
</g>
<g>
</g>
<g>
</g>
<g>
</g>
<g>
</g>
<g>
</g>
<g>
</g>
<g>
</g>
<g>
</g>
<g>
</g>
<g>
</g>
</svg>