<svg xmlns="http://www.w3.org/2000/svg" width="960" height="540" viewBox="0 0 960 540">
  <rect width="960" height="540" fill="#f6f7fb"/>
  <rect x="60" y="70" width="220" height="120" rx="12" fill="#ffffff" stroke="#2c3e50" stroke-width="2"/>
  <text x="170" y="110" font-family="Arial, sans-serif" font-size="16" text-anchor="middle" fill="#2c3e50">Cliente</text>
  <text x="170" y="135" font-family="Arial, sans-serif" font-size="12" text-anchor="middle" fill="#2c3e50">Web / Postman / Curl</text>

  <rect x="370" y="70" width="220" height="120" rx="12" fill="#ffffff" stroke="#2c3e50" stroke-width="2"/>
  <text x="480" y="110" font-family="Arial, sans-serif" font-size="16" text-anchor="middle" fill="#2c3e50">API Laravel</text>
  <text x="480" y="135" font-family="Arial, sans-serif" font-size="12" text-anchor="middle" fill="#2c3e50">routes/api.php</text>

  <rect x="680" y="70" width="220" height="120" rx="12" fill="#ffffff" stroke="#2c3e50" stroke-width="2"/>
  <text x="790" y="110" font-family="Arial, sans-serif" font-size="16" text-anchor="middle" fill="#2c3e50">Sanctum</text>
  <text x="790" y="135" font-family="Arial, sans-serif" font-size="12" text-anchor="middle" fill="#2c3e50">API Tokens</text>

  <rect x="220" y="270" width="220" height="120" rx="12" fill="#ffffff" stroke="#2c3e50" stroke-width="2"/>
  <text x="330" y="310" font-family="Arial, sans-serif" font-size="16" text-anchor="middle" fill="#2c3e50">Controllers</text>
  <text x="330" y="335" font-family="Arial, sans-serif" font-size="12" text-anchor="middle" fill="#2c3e50">Empresa / Oferta</text>

  <rect x="520" y="270" width="220" height="120" rx="12" fill="#ffffff" stroke="#2c3e50" stroke-width="2"/>
  <text x="630" y="310" font-family="Arial, sans-serif" font-size="16" text-anchor="middle" fill="#2c3e50">Database</text>
  <text x="630" y="335" font-family="Arial, sans-serif" font-size="12" text-anchor="middle" fill="#2c3e50">MySQL / MariaDB</text>

  <line x1="280" y1="130" x2="370" y2="130" stroke="#2c3e50" stroke-width="2"/>
  <polygon points="370,130 360,124 360,136" fill="#2c3e50"/>

  <line x1="590" y1="130" x2="680" y2="130" stroke="#2c3e50" stroke-width="2"/>
  <polygon points="680,130 670,124 670,136" fill="#2c3e50"/>

  <line x1="480" y1="190" x2="330" y2="270" stroke="#2c3e50" stroke-width="2"/>
  <polygon points="330,270 332,258 340,264" fill="#2c3e50"/>

  <line x1="480" y1="190" x2="630" y2="270" stroke="#2c3e50" stroke-width="2"/>
  <polygon points="630,270 620,264 628,258" fill="#2c3e50"/>
</svg>
